<svg width="238" height="123" viewBox="0 0 238 123" fill="none" xmlns="http://www.w3.org/2000/svg">
<path d="M11.4378 38.1569V54.7664H3.40869V13.916H11.4378V30.4694H24.6225V13.916H32.6516V54.7664H24.6225V38.1569H11.4378ZM34.2586 23.9042H41.8932L49.4434 45.4516L57.7543 23.9042H65.3045L48.5701 64.7545H41.1326L45.4712 53.8966L34.2586 23.9042ZM73.4192 39.195C73.4192 41.8324 74.2738 44.0395 75.983 45.8163C77.692 47.5746 79.8049 48.4537 82.3217 48.4537C84.8009 48.4537 86.9138 47.5559 88.6605 45.7603C90.4263 43.9647 91.3089 41.8136 91.3089 39.3072C91.3089 36.7073 90.4263 34.547 88.6605 32.8262C86.895 31.1053 84.6694 30.245 81.9836 30.245C79.6172 30.245 77.5981 31.1147 75.9266 32.8543C74.255 34.575 73.4192 36.6886 73.4192 39.195ZM73.1375 52.2974V64.7545H66.0381V23.9042H73.1375V26.4854C74.5837 25.3445 76.0956 24.5028 77.6733 23.9603C79.2509 23.3992 80.9507 23.1186 82.7725 23.1186C84.7258 23.1186 86.5663 23.4273 88.2942 24.0444C90.0222 24.643 91.5712 25.5408 92.9424 26.7379C94.8023 28.3465 96.2294 30.245 97.2246 32.4334C98.2388 34.6218 98.7464 36.9504 98.7464 39.4194C98.7464 41.7202 98.2857 43.9179 97.3662 46.0128C96.4647 48.1076 95.1773 49.9127 93.5059 51.4276C92.0788 52.7743 90.4443 53.8031 88.6042 54.5139C86.7823 55.2246 84.8572 55.58 82.8288 55.58C80.8567 55.58 79.0819 55.3089 77.5043 54.7664C75.9454 54.2427 74.4898 53.4197 73.1375 52.2974ZM125.286 35.9124C124.666 33.8549 123.624 32.2931 122.159 31.2269C120.713 30.1421 118.881 29.5997 116.665 29.5997C114.749 29.5997 113.031 30.1795 111.509 31.3391C109.988 32.4988 108.964 34.0232 108.439 35.9124H125.286ZM108.185 41.6079C108.43 43.8337 109.312 45.5919 110.833 46.8826C112.374 48.1544 114.355 48.7904 116.778 48.7904C118.393 48.7904 119.839 48.4537 121.117 47.7804C122.412 47.107 123.435 46.1624 124.187 44.9466H131.963C130.647 48.3134 128.676 50.932 126.046 52.8024C123.435 54.6542 120.412 55.58 116.975 55.58C114.664 55.58 112.533 55.1779 110.58 54.3736C108.645 53.5506 106.908 52.3442 105.368 50.7543C103.903 49.2393 102.766 47.4904 101.959 45.5077C101.152 43.5063 100.748 41.4583 100.748 39.3634C100.748 37.2123 101.114 35.1923 101.847 33.3032C102.598 31.3953 103.697 29.6838 105.143 28.1688C106.72 26.5041 108.504 25.2229 110.495 24.3251C112.486 23.4273 114.543 22.9784 116.665 22.9784C119.351 22.9784 121.858 23.5862 124.187 24.802C126.516 26.0178 128.497 27.7292 130.132 29.9364C131.127 31.2643 131.859 32.7514 132.329 34.3973C132.817 36.0433 133.062 37.9325 133.062 40.0648C133.062 40.2331 133.052 40.495 133.033 40.8504C133.014 41.187 133.005 41.4395 133.005 41.6079H108.185ZM150.867 30.1608C148.069 30.3853 146.116 31.1147 145.008 32.3492C143.9 33.5837 143.345 35.8095 143.345 39.0267V54.7664H136.133V23.9042H142.895V27.4674C143.984 26.0833 145.176 25.0732 146.473 24.4373C147.768 23.7826 149.233 23.4553 150.867 23.4553V30.1608Z" fill="white"/>
<path d="M90.8555 109.533V68.6825H112.999V75.865H98.8005V85.1798H112.999V92.25H98.8005V109.533H90.8555ZM122.832 93.9056C122.832 96.7669 123.621 99.0393 125.199 100.724C126.776 102.388 128.917 103.22 131.622 103.22C134.29 103.22 136.412 102.369 137.989 100.667C139.586 98.9459 140.384 96.6358 140.384 93.7368C140.384 91.1367 139.548 89.0048 137.877 87.3401C136.223 85.6567 134.139 84.8151 131.622 84.8151C129.03 84.8151 126.917 85.6661 125.283 87.3682C123.649 89.0516 122.832 91.231 122.832 93.9056ZM115.395 93.9612C115.395 91.7921 115.79 89.7343 116.578 87.789C117.386 85.8251 118.55 84.0855 120.072 82.5705C121.63 81.0181 123.387 79.8303 125.339 79.0073C127.293 78.1656 129.321 77.7448 131.425 77.7448C133.66 77.7448 135.717 78.1188 137.595 78.8671C139.491 79.5965 141.229 80.7 142.806 82.1777C144.422 83.7302 145.671 85.5258 146.554 87.5645C147.436 89.5846 147.877 91.6611 147.877 93.7934C147.877 96.1501 147.492 98.3013 146.722 100.246C145.952 102.191 144.798 103.949 143.257 105.521C141.717 107.111 139.961 108.317 137.989 109.14C136.017 109.944 133.876 110.346 131.566 110.346C129.237 110.346 127.114 109.935 125.199 109.112C123.283 108.289 121.537 107.055 119.959 105.408C118.456 103.8 117.32 102.033 116.55 100.106C115.78 98.1603 115.395 96.1124 115.395 93.9612ZM173.572 89.6408C172.708 88.0322 171.6 86.8257 170.247 86.0215C168.914 85.2172 167.327 84.8151 165.486 84.8151C163.045 84.8151 160.998 85.6941 159.345 87.4523C157.711 89.2106 156.894 91.4177 156.894 94.0735C156.894 96.6924 157.73 98.8714 159.401 100.61C161.092 102.35 163.205 103.22 165.74 103.22C167.693 103.22 169.318 102.808 170.614 101.986C171.91 101.144 172.877 99.8904 173.515 98.2258H181.207C180.268 102.005 178.437 104.969 175.713 107.12C172.99 109.271 169.684 110.346 165.797 110.346C163.505 110.346 161.383 109.944 159.429 109.14C157.477 108.317 155.71 107.111 154.133 105.521C152.668 104.025 151.522 102.276 150.696 100.275C149.87 98.2546 149.457 96.2058 149.457 94.13C149.457 91.96 149.832 89.931 150.584 88.0415C151.335 86.1524 152.442 84.4503 153.907 82.9352C155.523 81.2332 157.345 79.9426 159.373 79.0634C161.402 78.1843 163.58 77.7448 165.909 77.7448C169.703 77.7448 172.99 78.8203 175.769 80.9713C178.549 83.1222 180.38 86.0121 181.263 89.6408H173.572ZM205.267 109.533V106.194C204.216 107.597 203.004 108.644 201.633 109.336C200.28 110.01 198.731 110.346 196.985 110.346C193.096 110.346 190.11 109.158 188.025 106.784C185.941 104.408 184.899 100.995 184.899 96.5424V78.6706H192.195V92.5301C192.195 96.7014 192.674 99.5537 193.632 101.088C194.59 102.622 196.243 103.388 198.59 103.388C200.994 103.388 202.713 102.528 203.746 100.807C204.797 99.0868 205.324 96.169 205.324 92.0534V78.6706H212.423V109.533H205.267ZM222.313 99.2924V99.7126C222.313 101.078 222.66 102.191 223.355 103.052C224.05 103.894 224.951 104.315 226.059 104.315C227.111 104.315 227.966 103.996 228.623 103.36C229.299 102.725 229.637 101.91 229.637 100.919C229.637 100.003 229.393 99.2547 228.904 98.6747C228.417 98.0768 227.543 97.478 226.285 96.8791C225.571 96.5613 224.52 96.1214 223.129 95.5611C221.739 94.9991 220.848 94.5601 220.453 94.2423C219.307 93.3067 218.462 92.2689 217.918 91.1278C217.373 89.9678 217.101 88.6494 217.101 87.1718C217.101 84.5719 218.011 82.3741 219.833 80.5785C221.673 78.7829 223.899 77.8851 226.51 77.8851C229.271 77.8851 231.449 78.68 233.046 80.2698C234.662 81.8597 235.544 84.0855 235.695 86.9474H229.215V86.7789C229.215 85.7877 228.951 85.0114 228.426 84.4503C227.919 83.8892 227.205 83.6086 226.285 83.6086C225.477 83.6086 224.801 83.8892 224.256 84.4503C223.731 84.9927 223.467 85.6754 223.467 86.4985C223.467 87.8452 224.858 89.0983 227.637 90.2578C228.37 90.5576 228.933 90.7911 229.327 90.959C231.994 92.1566 233.816 93.4468 234.793 94.8312C235.769 96.1968 236.258 98.0481 236.258 100.386C236.258 103.267 235.281 105.652 233.328 107.541C231.375 109.412 228.914 110.346 225.947 110.346C222.961 110.346 220.547 109.355 218.707 107.373C216.885 105.389 215.889 102.706 215.72 99.3203L222.313 99.2924Z" fill="white"/>
</svg>
